<?xml version="1.0" encoding="iso-8859-1"?>
<!-- Generator: Adobe Illustrator 19.0.0, SVG Export Plug-In . SVG Version: 6.00 Build 0)  -->
<svg version="1.1" id="Layer_1" xmlns="http://www.w3.org/2000/svg" xmlns:xlink="http://www.w3.org/1999/xlink" x="0px" y="0px"
	 viewBox="0 0 455 455" style="enable-background:new 0 0 455 455;" xml:space="preserve">
<g>
	<path d="M415.681,99.628c-14.024-20.597-31.133-38.575-50.664-53.401h43.782v-30h-115v115h30V55.014
		C385.945,89.628,425,155.082,425,227.5C425,336.402,336.402,425,227.5,425C118.598,425,30,336.402,30,227.5S118.598,30,227.5,30
		c4.886,0,9.867,0.186,14.806,0.551l2.217-29.918C238.849,0.213,233.122,0,227.5,0C166.732,0,109.603,23.664,66.633,66.633
		S0,166.732,0,227.5s23.664,117.897,66.633,160.867S166.732,455,227.5,455s117.897-23.664,160.867-66.633
		C431.336,345.397,455,288.268,455,227.5C455,181.625,441.403,137.408,415.681,99.628z"/>
	<polygon points="212.5,212.475 75.525,212.245 75.475,242.245 242.5,242.525 242.5,75.5 212.5,75.5 	"/>
</g>
<g>
</g>
<g>
</g>
<g>
</g>
<g>
</g>
<g>
</g>
<g>
</g>
<g>
</g>
<g>
</g>
<g>
</g>
<g>
</g>
<g>
</g>
<g>
</g>
<g>
</g>
<g>
</g>
<g>
</g>
</svg>
